<?xml version="1.0" standalone="no"?>
<svg xmlns:xlink="http://www.w3.org/1999/xlink" id="wave" style="transform:rotate(180deg); transition: 0.3s" viewBox="0 0 1440 490" version="1.1" xmlns="http://www.w3.org/2000/svg"><defs><linearGradient id="sw-gradient-0" x1="0" x2="0" y1="1" y2="0"><stop stop-color="rgba(62, 78.046, 243, 1)" offset="0%"/><stop stop-color="rgba(11, 255, 237.64, 1)" offset="100%"/></linearGradient></defs><path style="transform:translate(0, 0px); opacity:1" fill="url(#sw-gradient-0)" d="M0,392L40,375.7C80,359,160,327,240,261.3C320,196,400,98,480,98C560,98,640,196,720,204.2C800,212,880,131,960,155.2C1040,180,1120,310,1200,334.8C1280,359,1360,278,1440,253.2C1520,229,1600,261,1680,294C1760,327,1840,359,1920,310.3C2000,261,2080,131,2160,73.5C2240,16,2320,33,2400,73.5C2480,114,2560,180,2640,212.3C2720,245,2800,245,2880,261.3C2960,278,3040,310,3120,294C3200,278,3280,212,3360,179.7C3440,147,3520,147,3600,130.7C3680,114,3760,82,3840,57.2C3920,33,4000,16,4080,32.7C4160,49,4240,98,4320,98C4400,98,4480,49,4560,49C4640,49,4720,98,4800,138.8C4880,180,4960,212,5040,196C5120,180,5200,114,5280,138.8C5360,163,5440,278,5520,269.5C5600,261,5680,131,5720,65.3L5760,0L5760,490L5720,490C5680,490,5600,490,5520,490C5440,490,5360,490,5280,490C5200,490,5120,490,5040,490C4960,490,4880,490,4800,490C4720,490,4640,490,4560,490C4480,490,4400,490,4320,490C4240,490,4160,490,4080,490C4000,490,3920,490,3840,490C3760,490,3680,490,3600,490C3520,490,3440,490,3360,490C3280,490,3200,490,3120,490C3040,490,2960,490,2880,490C2800,490,2720,490,2640,490C2560,490,2480,490,2400,490C2320,490,2240,490,2160,490C2080,490,2000,490,1920,490C1840,490,1760,490,1680,490C1600,490,1520,490,1440,490C1360,490,1280,490,1200,490C1120,490,1040,490,960,490C880,490,800,490,720,490C640,490,560,490,480,490C400,490,320,490,240,490C160,490,80,490,40,490L0,490Z"/></svg>